<?xml version="1.0" encoding="utf-8"?>
<!-- Generator: Adobe Illustrator 19.0.0, SVG Export Plug-In . SVG Version: 6.00 Build 0)  -->
<svg version="1.1" id="Layer_1" xmlns="http://www.w3.org/2000/svg" xmlns:xlink="http://www.w3.org/1999/xlink" x="0px" y="0px"
	 viewBox="0 0 1079 1284" style="enable-background:new 0 0 1079 1284;" xml:space="preserve">
<style type="text/css">
	.st0{opacity:0.8;fill:#71C070;}
	.st1{fill:#71C070;}
	.st2{opacity:0.6;}
</style>
<g id="XMLID_610_">
	<g id="XMLID_809_">
		<path id="XMLID_815_" class="st0" d="M850.2,629.7L850.2,629.7C724.1,629.7,622,731.9,622,858l-2.5,335.1H1076l2.5-335.1
			C1078.5,731.9,976.3,629.7,850.2,629.7z"/>
		<circle id="XMLID_814_" class="st0" cx="850.2" cy="354.4" r="228.3"/>
	</g>
	<g id="XMLID_658_">
		<path id="XMLID_803_" class="st1" d="M537.5,596.1L537.5,596.1c-149.2,0-270.2,121-270.2,270.2l-2.5,417.4h540.3l2.5-417.4
			C807.7,717,686.7,596.1,537.5,596.1z"/>
		<circle id="XMLID_798_" class="st1" cx="537.5" cy="270.2" r="270.2"/>
	</g>
	<g id="XMLID_655_" class="st2">
		<path id="XMLID_657_" class="st1" d="M202,712.6L202,712.6C91.3,712.6,1.5,802.4,1.5,913.1L-1,1193.8h401.1l2.5-280.7
			C402.5,802.4,312.8,712.6,202,712.6z"/>
		<circle id="XMLID_656_" class="st1" cx="202" cy="470.7" r="200.5"/>
	</g>
</g>
</svg>
