<?xml version="1.0" encoding="utf-8"?>
<!-- Generator: Adobe Illustrator 19.0.0, SVG Export Plug-In . SVG Version: 6.00 Build 0)  -->
<svg version="1.1" id="Layer_1" xmlns="http://www.w3.org/2000/svg" xmlns:xlink="http://www.w3.org/1999/xlink" x="0px" y="0px"
	 viewBox="0 0 287 197" style="enable-background:new 0 0 287 197;" xml:space="preserve">
<style type="text/css">
	.st0{fill:#FFFFFF;}
	.st1{opacity:0.75;fill:#FFFFFF;}
</style>
<g id="XMLID_2630_">
	<path id="XMLID_2562_" class="st0" d="M256,28.4H31.6c-17.2,0-31.1,13.9-31.1,31.1V166c0,17.2,13.9,31.1,31.1,31.1H256
		c17.2,0,31.1-13.9,31.1-31.1V59.5C287.1,42.3,273.2,28.4,256,28.4z M143.8,166.9c-29.9,0-54.1-24.2-54.1-54.1s24.2-54.1,54.1-54.1
		s54.1,24.2,54.1,54.1S173.7,166.9,143.8,166.9z"/>
	<path id="XMLID_2561_" class="st1" d="M201.2,39.7H86.4c-5.2,0-8.5-5.6-6-10.2l14.4-26c1.2-2.2,3.5-3.5,6-3.5l86.1,0
		c2.5,0,4.8,1.4,6,3.5l14.4,26C209.7,34.1,206.4,39.7,201.2,39.7z"/>
</g>
</svg>
