<?xml version="1.0" encoding="utf-8"?>
<!-- Generator: Adobe Illustrator 19.0.0, SVG Export Plug-In . SVG Version: 6.00 Build 0)  -->
<svg version="1.1" id="Layer_1" xmlns="http://www.w3.org/2000/svg" xmlns:xlink="http://www.w3.org/1999/xlink" x="0px" y="0px"
	 viewBox="0 0 53 41" style="enable-background:new 0 0 53 41;" xml:space="preserve">
<style type="text/css">
	.st0{fill:#c0c0c0;}
</style>
<g id="XMLID_495_">
	<path id="XMLID_497_" class="st0" d="M30.3,34.6l11.1-11.4c1.4-1.5,1.4-3.8,0-5.3L30.3,6.4C28,4,29.7,0,33.1,0h0c1,0,2,0.4,2.7,1.2
		l16.2,16.7c1.4,1.5,1.4,3.8,0,5.3L35.8,39.8c-0.7,0.7-1.7,1.2-2.7,1.2h0C29.7,41,28,37,30.3,34.6z"/>
	<path id="XMLID_496_" class="st0" d="M0,20.7l0-0.3c0-2,1.6-3.7,3.7-3.7h37.5c2,0,3.7,1.6,3.7,3.7v0.3c0,2-1.6,3.7-3.7,3.7H3.7
		C1.6,24.3,0,22.7,0,20.7z"/>
</g>
</svg>
