<?xml version="1.0" encoding="utf-8"?>
<!-- Generator: Adobe Illustrator 19.0.0, SVG Export Plug-In . SVG Version: 6.00 Build 0)  -->
<svg version="1.1" id="Layer_1" xmlns="http://www.w3.org/2000/svg" xmlns:xlink="http://www.w3.org/1999/xlink" x="0px" y="0px"
	 viewBox="0 0 156.7 155.8" style="enable-background:new 0 0 156.7 155.8;" xml:space="preserve">
<style type="text/css">
	.st0{fill:#FFFFFF;}
	.st1{opacity:0.6;fill:#FFFFFF;}
</style>
<path id="XMLID_674_" class="st0" d="M154.6,80.4c2.8-2.9,2.8-7.5,0-10.3L88.8,4.3C85.9,1.4,82.1,0,78.3,0c-3.8,0-7.6,1.4-10.5,4.3
	L2.2,70c-2.9,2.9-2.9,7.6,0,10.5l0,0c2.9,2.9,7.6,2.9,10.5,0l3.2-3.1v65.1c0,7.4,6,13.3,13.3,13.3h1.3h95.6h1.1
	c7.7,0,13.9-6.3,13.9-13.9V77.4l3,3C147,83.3,151.7,83.3,154.6,80.4L154.6,80.4z M121.8,141.4H34.2c-2.2,0-4-1.8-4-4V65.5
	c0-1.9,0.7-3.6,2-4.9l43.8-43.7c1.2-1.2,2.9-1.2,4.1,0l43.5,43.7c1.3,1.3,2,3.1,2,4.9v71.9C125.7,139.6,124,141.4,121.8,141.4z"/>
<polygon id="XMLID_663_" class="st1" points="23.7,143.9 23.7,58.8 78.3,5.8 135.7,64.2 135.7,147 23.7,147 "/>
</svg>
