<?xml version="1.0" encoding="utf-8"?>
<!-- Generator: Adobe Illustrator 19.0.0, SVG Export Plug-In . SVG Version: 6.00 Build 0)  -->
<svg version="1.1" id="Layer_1" xmlns="http://www.w3.org/2000/svg" xmlns:xlink="http://www.w3.org/1999/xlink" x="0px" y="0px"
	 viewBox="0 0 53 41" style="enable-background:new 0 0 53 41;" xml:space="preserve">
<style type="text/css">
	.st0{fill:#FFFFFF;}
</style>
<g id="XMLID_495_">
	<path id="XMLID_497_" class="st0" d="M22.7,6.4L11.6,17.9c-1.4,1.5-1.4,3.8,0,5.3l11.1,11.4C25,37,23.3,41,19.9,41h0
		c-1,0-2-0.4-2.7-1.2L1.1,23.1c-1.4-1.5-1.4-3.8,0-5.3L17.2,1.2C17.9,0.4,18.9,0,19.9,0h0C23.3,0,25,4,22.7,6.4z"/>
	<path id="XMLID_496_" class="st0" d="M53,20.3v0.3c0,2-1.6,3.7-3.7,3.7H11.9c-2,0-3.7-1.6-3.7-3.7v-0.3c0-2,1.6-3.7,3.7-3.7h37.5
		C51.4,16.7,53,18.3,53,20.3z"/>
</g>
</svg>
