<?xml version="1.0" encoding="utf-8"?>
<!-- Generator: Adobe Illustrator 19.0.0, SVG Export Plug-In . SVG Version: 6.00 Build 0)  -->
<svg version="1.1" id="Layer_1" xmlns="http://www.w3.org/2000/svg" xmlns:xlink="http://www.w3.org/1999/xlink" x="0px" y="0px"
	 viewBox="0 0 877 1280" style="enable-background:new 0 0 877 1280;" xml:space="preserve">
<style type="text/css">
	.st0{fill:#79c843;}
</style>
<g id="_x32_2wwyo.tif">
	<g id="XMLID_2_">
		<path id="XMLID_3_" class="st0" d="M874.6,784.3c0,56.5-1.4,113.1,0.3,169.6c2.7,88.3-34.2,157.4-99.5,213
			c-67.5,57.6-147.2,89.1-233.7,103.6c-126.5,21.2-248.9,7.8-364.3-50.5c-71.7-36.2-131.1-86.4-161.7-162.9
			c-10.1-25.4-16.2-54-16.5-81.3C-2.5,847.3-2.2,718.6-1.3,590c0.5-64.7,31.6-112.6,88.7-142.3c14-7.3,17.9-15.4,18.2-29.7
			c2.2-101.1,28.7-194.9,87.1-278.3C239.5,73.1,300,23.6,381.3,6.3c90.9-19.3,171.2,6.4,239.7,67.5c84.6,75.5,126,173.5,141.6,283.7
			c3.1,22.1,2.4,44.6,5.2,66.8c0.9,7,5.9,16.5,11.8,19.5c63.2,32.3,94.8,83.5,95.1,154.1C874.8,660,874.6,722.2,874.6,784.3z
			 M632.2,428.9c-3.1-76.7-17.1-147.7-64-208.4c-70.2-90.9-190.3-91.8-262.2-2.2c-31.8,39.7-49.2,86-57.7,135.5
			c-4.2,24.6-5.9,49.6-8.7,75C372.6,428.9,501,428.9,632.2,428.9z M368.2,1008.5c42.4,0,81.5,0,120.6,0c4.3,0,8.5-0.7,15.1-1.2
			c0-31.9,0.5-63.5-0.3-95c-0.3-12.3,3.6-20.2,13.2-28.2c55.4-46.3,59.4-128.2,9.8-180.4c-49.1-51.6-132.4-51.3-181.3,0.7
			c-49.1,52.3-44.5,134.9,11.2,180.4c9.5,7.8,12.1,15.5,11.9,26.8C367.9,943,368.2,974.6,368.2,1008.5z"/>
	</g>
</g>
</svg>
