<svg version="1.1" xmlns="http://www.w3.org/2000/svg" xmlns:xlink="http://www.w3.org/1999/xlink"
	 viewBox="0 0 1280 1280" xml:space="preserve">
	 <style>
	 	.logo-color {
	 		fill: #FFFFFF;
	 	}
	 </style>
	<g id="XMLID_2_">
		<path id="XMLID_7_" class="logo-color" d="M1006.7,723.6H631.1H271.4c-43.2,0-78.1,50.5-78.1,112.8v168.6c0,62.3,35,112.8,78.1,112.8
			h735.3c43.2,0,78.1-50.5,78.1-112.8V836.3C1084.8,774.1,1049.8,723.6,1006.7,723.6z"/>
		<path id="XMLID_6_" class="logo-color" d="M480.9,631.2H517c52.7,0,95.5-42.7,95.5-95.5V282.4c0-52.7-42.7-95.5-95.5-95.5h-36.1
			c-52.7,0-95.5,42.7-95.5,95.5v253.3C385.5,588.4,428.2,631.2,480.9,631.2z"/>
		<path id="XMLID_5_" class="logo-color" d="M762,631.2h36.1c52.7,0,95.5-42.7,95.5-95.5V282.4c0-52.7-42.7-95.5-95.5-95.5H762
			c-52.7,0-95.5,42.7-95.5,95.5v253.3C666.5,588.4,709.3,631.2,762,631.2z"/>
		<path id="XMLID_4_" class="logo-color" d="M1029.9,377.2l-24.3,0c-34.2,0-61.9,27.7-61.9,61.9v130.1c0,34.2,27.7,61.9,61.9,61.9l24.3,0
			c34.2,0,61.9-27.7,61.9-61.9V439.2C1091.8,405,1064.1,377.2,1029.9,377.2z"/>
		<path id="XMLID_3_" class="logo-color" d="M249.1,631.2l24.3,0c34.2,0,61.9-27.7,61.9-61.9V439.2c0-34.2-27.7-61.9-61.9-61.9l-24.3,0
			c-34.2,0-61.9,27.7-61.9,61.9v130.1C187.2,603.4,214.9,631.2,249.1,631.2z"/>
	</g>
</svg>