<?xml version="1.0" encoding="utf-8"?>
<!-- Generator: Adobe Illustrator 19.0.0, SVG Export Plug-In . SVG Version: 6.00 Build 0)  -->
<svg version="1.1" id="Layer_1" xmlns="http://www.w3.org/2000/svg" xmlns:xlink="http://www.w3.org/1999/xlink" x="0px" y="0px"
	 viewBox="0 0 192 264" style="enable-background:new 0 0 192 264;">
<style type="text/css">
	.st0{fill:#FFFFFF;}
	.st1{opacity:0.6;}
</style>
<g id="XMLID_1695_">
	<g id="XMLID_1728_">
		<path id="XMLID_1741_" class="st0" d="M156.2,263.7H34.6c-19.5,0-35.4-15.9-35.4-35.4V34.9c0-19.5,15.9-35.4,35.4-35.4h121.6
			c19.5,0,35.4,15.9,35.4,35.4v193.4C191.7,247.8,175.8,263.7,156.2,263.7z M34.6,17.3c-9.7,0-17.6,7.9-17.6,17.6v193.4
			c0,9.7,7.9,17.6,17.6,17.6h121.6c9.7,0,17.6-7.9,17.6-17.6V34.9c0-9.7-7.9-17.6-17.6-17.6H34.6z"/>
	</g>
	<g id="XMLID_1726_" class="st1">
		<rect id="XMLID_1727_" x="8.1" y="62.7" class="st0" width="118.5" height="17.8"/>
	</g>
	<g id="XMLID_1719_" class="st1">
		<rect id="XMLID_1720_" x="9.8" y="128.1" class="st0" width="118.5" height="17.8"/>
	</g>
	<g id="XMLID_1696_" class="st1">
		<rect id="XMLID_1718_" x="8.1" y="193.5" class="st0" width="118.5" height="17.8"/>
	</g>
</g>
</svg>
