<?xml version="1.0" encoding="utf-8"?>
<!-- Generator: Adobe Illustrator 19.0.0, SVG Export Plug-In . SVG Version: 6.00 Build 0)  -->
<svg version="1.1" id="Layer_1" xmlns="http://www.w3.org/2000/svg" xmlns:xlink="http://www.w3.org/1999/xlink" x="0px" y="0px"
	 viewBox="0 0 166 242" style="enable-background:new 0 0 166 242;" xml:space="preserve">
<style type="text/css">
	.st0{opacity:0.8;}
	.st1{fill:#FFFFFF;}
</style>
<g id="_x32_2wwyo.tif_32_" class="st0">
	<g id="XMLID_4094_">
		<path id="XMLID_4095_" class="st1" d="M165.7,148.2c0,10.7-0.3,21.4,0.1,32.1c0.5,16.7-6.5,29.8-18.8,40.3
			c-12.8,10.9-27.8,16.9-44.2,19.6c-23.9,4-47.1,1.5-68.9-9.6c-13.6-6.8-24.8-16.3-30.6-30.8C1.2,195,0.1,189.6,0,184.5
			c-0.3-24.3-0.3-48.7-0.1-73c0.1-12.2,6-21.3,16.8-26.9c2.7-1.4,3.4-2.9,3.4-5.6c0.4-19.1,5.4-36.9,16.5-52.7
			C45.5,13.6,56.9,4.3,72.3,1c17.2-3.7,32.4,1.2,45.4,12.8c16,14.3,23.8,32.8,26.8,53.7c0.6,4.2,0.5,8.4,1,12.6
			c0.2,1.3,1.1,3.1,2.2,3.7c12,6.1,17.9,15.8,18,29.2C165.7,124.7,165.7,136.4,165.7,148.2z M119.8,80.9c-0.6-14.5-3.2-28-12.1-39.4
			c-13.3-17.2-36-17.4-49.6-0.4c-6,7.5-9.3,16.3-10.9,25.6c-0.8,4.6-1.1,9.4-1.7,14.2C70.7,80.9,95,80.9,119.8,80.9z M69.9,190.6
			c8,0,15.4,0,22.8,0c0.8,0,1.6-0.1,2.9-0.2c0-6,0.1-12,0-18c-0.1-2.3,0.7-3.8,2.5-5.3c10.5-8.8,11.2-24.3,1.8-34.1
			c-9.3-9.8-25.1-9.7-34.3,0.1c-9.3,9.9-8.4,25.5,2.1,34.1c1.8,1.5,2.3,2.9,2.3,5.1C69.8,178.2,69.9,184.2,69.9,190.6z"/>
	</g>
</g>
</svg>
