<?xml version="1.0" encoding="utf-8"?>
<!-- Generator: Adobe Illustrator 19.0.0, SVG Export Plug-In . SVG Version: 6.00 Build 0)  -->
<svg version="1.1" id="Layer_1" xmlns="http://www.w3.org/2000/svg" xmlns:xlink="http://www.w3.org/1999/xlink" x="0px" y="0px"
	 viewBox="0 0 154.8 154.9" style="enable-background:new 0 0 154.8 154.9;" xml:space="preserve">
<style type="text/css">
	.st0{opacity:0.6;}
	.st1{fill:#FFFFFF;}
</style>
<g id="XMLID_2448_">
	<g id="XMLID_2446_" class="st0">
		<circle id="XMLID_2447_" class="st1" cx="59" cy="59.1" r="52.6"/>
	</g>
	<g id="XMLID_2442_">
		<path id="XMLID_2443_" class="st1" d="M59,118.2c-16.9,0-32.7-7.1-44.1-19.8C-5.2,75.9-4.9,41.2,15.5,19
			C30.6,2.7,53.2-3.9,75.7,2.3c4,1.1,7.8,2.7,11.4,4.7C112,21,123.4,48.5,115.7,76c-1.1,3.9-2.6,7.6-4.6,11.1
			C100,106.9,80.4,118.2,59,118.2z M59,12.9c-13.4,0-26,5.7-34.9,15.9c-14.9,17.1-15,43.2,0,60.4c12.7,14.6,32.7,20,52.2,12.9
			c0.3-0.1,0.7-0.3,1-0.4c17.7-8.2,27.9-24.6,27.9-42.6c0-12.3-4.8-23.9-13.5-32.6l0,0C82.9,17.7,71.3,12.9,59,12.9z"/>
	</g>
	<g id="XMLID_2440_">
		<path id="XMLID_2441_" class="st1" d="M153.8,144.9l-9,9c-1.4,1.4-3.5,1.4-4.9,0l-48.2-48.2c-1.4-1.4-1.4-3.5,0-4.9l9-9
			c1.4-1.4,3.5-1.4,4.9,0l48.2,48.2C155.2,141.3,155.2,143.5,153.8,144.9z"/>
	</g>
</g>
</svg>
