<?xml version="1.0" encoding="utf-8"?>
<!-- Generator: Adobe Illustrator 19.0.0, SVG Export Plug-In . SVG Version: 6.00 Build 0)  -->
<svg version="1.1" id="Layer_1" xmlns="http://www.w3.org/2000/svg" xmlns:xlink="http://www.w3.org/1999/xlink" x="0px" y="0px"
	 viewBox="0 0 1270 1280" style="enable-background:new 0 0 1270 1280;" xml:space="preserve">
<style type="text/css">
	.st0{fill:#71C070;}
	.st1{opacity:0.6;fill:#71C070;}
</style>
<g id="XMLID_23_">
	<g id="XMLID_24_">
		<path id="XMLID_31_" class="st0" d="M723.1,1200.8C335.6,1262.7,4.4,931.5,66.2,544C104.7,302.5,294.8,112.5,536.2,74
			c387.5-61.8,718.7,269.4,656.9,656.9C1154.5,972.3,964.5,1162.3,723.1,1200.8z M617.6,185.5c-239.8,6.3-433.6,200.2-439.9,440
			c-6.8,260.5,203.5,470.8,464,464c239.8-6.3,433.6-200.2,439.9-440C1088.4,389,878.1,178.6,617.6,185.5z"/>
	</g>
	<path id="XMLID_25_" class="st0" d="M672.4,138.6h-85.8c-38.3,0-69.3-31-69.3-69.3v0c0-38.3,31-69.3,69.3-69.3l85.8,0
		c38.3,0,69.3,31,69.3,69.3v0C741.6,107.5,710.6,138.6,672.4,138.6z"/>
	<path id="XMLID_26_" class="st0" d="M672.4,1280h-85.8c-38.3,0-69.3-31-69.3-69.3v0c0-38.3,31-69.3,69.3-69.3h85.8
		c38.3,0,69.3,31,69.3,69.3v0C741.6,1249,710.6,1280,672.4,1280z"/>
	<path id="XMLID_27_" class="st0" d="M-0.6,702.7v-85.8c0-38.3,31-69.3,69.3-69.3h0c38.3,0,69.3,31,69.3,69.3v85.8
		c0,38.3-31,69.3-69.3,69.3h0C30.4,772-0.6,740.9-0.6,702.7z"/>
	<path id="XMLID_28_" class="st0" d="M1131.2,706v-85.8c0-38.3,31-69.3,69.3-69.3h0c38.3,0,69.3,31,69.3,69.3V706
		c0,38.3-31,69.3-69.3,69.3h0C1162.3,775.3,1131.2,744.2,1131.2,706z"/>
	<path id="XMLID_29_" class="st1" d="M1015.9,312.1l-60.7-60.7c-27.1-27.1-27.1-70.9,0-98l0,0c27.1-27.1,70.9-27.1,98,0l60.7,60.7
		c27.1,27.1,27.1,70.9,0,98l0,0C1086.8,339.2,1042.9,339.2,1015.9,312.1z"/>
	<path id="XMLID_30_" class="st1" d="M208.7,1119.3l-60.7-60.7c-27.1-27.1-27.1-70.9,0-98l0,0c27.1-27.1,70.9-27.1,98,0l60.7,60.7
		c27.1,27.1,27.1,70.9,0,98l0,0C279.7,1146.3,235.8,1146.3,208.7,1119.3z"/>
	<path id="XMLID_37_" class="st1" d="M141.1,235.2l60.7-60.7c27.1-27.1,70.9-27.1,98,0l0,0c27.1,27.1,27.1,70.9,0,98l-60.7,60.7
		c-27.1,27.1-70.9,27.1-98,0l0,0C114,306.1,114,262.2,141.1,235.2z"/>
	<path id="XMLID_38_" class="st1" d="M939.1,1037.8l60.7-60.7c27.1-27.1,70.9-27.1,98,0l0,0c27.1,27.1,27.1,70.9,0,98l-60.7,60.7
		c-27.1,27.1-70.9,27.1-98,0l0,0C912.1,1108.8,912.1,1064.9,939.1,1037.8z"/>
</g>
</svg>
