<?xml version="1.0" encoding="utf-8"?>
<!-- Generator: Adobe Illustrator 19.0.0, SVG Export Plug-In . SVG Version: 6.00 Build 0)  -->
<svg version="1.1" id="Layer_1" xmlns="http://www.w3.org/2000/svg" xmlns:xlink="http://www.w3.org/1999/xlink" x="0px" y="0px"
	 viewBox="0 0 170 127" style="enable-background:new 0 0 170 127;" xml:space="preserve">
<style type="text/css">
	.st0{opacity:0.6;}
	.st1{fill:#FFFFFF;}
	.st2{fill:#4391C8;}
</style>
<g id="XMLID_344_" class="st0">
	<path id="XMLID_478_" class="st1" d="M166.6,12.7l-13.5,19.7c-0.8,1.1-2.1,2.1-3.5,2.1h-20.3c-1.4,0-2.7-0.9-3.5-2.1l-13.5-19.6
		c-1-1.5-3.3-0.9-3.3,1V33v46.8c0,3.2,1.6,6.2,4.4,7.7l21.7,12.3c2.7,1.5,6,1.5,8.7,0l21.7-12.3c2.8-1.6,4.5-4.5,4.5-7.7V33V13.8
		C170,11.9,167.7,11.2,166.6,12.7z"/>
	<path id="XMLID_474_" class="st2" d="M140.9,62.5c-0.3,1.4,0.7,3,2.1,3h0c1,0,2-1,2.3-1.9c0.7-3.1,3.8-5.5,6.8-5.5v0
		c1,0,5.7,2.1,6.5,5.2c0.2,1,1,1.6,2,1.6c1.4,0,2.4-1.3,2-2.7c-1.2-4.9-5.6-8.3-10.8-8.3C146.5,53.9,142.1,57.5,140.9,62.5z"/>
	<path id="XMLID_346_" class="st2" d="M127.1,53.7c-5.2,0-9.6,3.8-10.8,8.8c-0.3,1.4,0.7,3,2.1,3h0c1,0,2.8-1,3-1.9
		c0.7-3.1,4.5-5.5,7.5-5.5v0c3,0,5,2.1,5.7,5.2c0.2,1,0.6,1.6,1.6,1.6c1.4,0,2.2-1.3,1.8-2.7C137,57.2,132.4,53.7,127.1,53.7z"/>
</g>
<g id="XMLID_500_" class="st0">
	<path id="XMLID_503_" class="st1" d="M57.8,12.7L44.3,32.4c-0.8,1.1-2,2.1-3.4,2.1H20.6c-1.4,0-2.7-0.9-3.5-2.1L3.4,12.8
		c-1-1.5-3.4-0.9-3.4,1V33v46.8C0,83,1.8,86,4.6,87.5l21.8,12.3c2.7,1.5,6.1,1.5,8.8,0l21.6-12.3C59.4,86,61,83,61,79.8V33V13.8
		C61,11.9,58.8,11.2,57.8,12.7z"/>
	<path id="XMLID_502_" class="st2" d="M32.1,62.5c-0.3,1.4,0.7,3,2.1,3h0c1,0,1.9-1,2.1-1.9C37.1,60.4,40,58,43,58v0
		c1,0,5.9,2.1,6.6,5.2c0.2,1,1.1,1.6,2.1,1.6c1.4,0,2.4-1.3,2.1-2.7c-1.2-4.9-5.6-8.3-10.8-8.3C37.7,53.9,33.3,57.5,32.1,62.5z"/>
	<path id="XMLID_501_" class="st2" d="M18.4,53.7c-5.2,0-9.6,3.8-10.8,8.8c-0.3,1.4,0.7,3,2.1,3h0c1,0,2.7-1,2.9-1.9
		C13.3,60.4,17,58,20,58v0c3,0,5.1,2.1,5.8,5.2c0.2,1,0.7,1.6,1.7,1.6c1.4,0,2.2-1.3,1.9-2.7C28.2,57.2,23.6,53.7,18.4,53.7z"/>
</g>
<g id="XMLID_335_">
	<path id="XMLID_340_" class="st1" d="M124.1,1.1l-19.4,28.2c-1.1,1.6-3,3.1-5,3.1H70.7c-2,0-3.8-1.5-5-3.1l-19.6-28
		C44.6-0.8,41,0,41,2.6V30v66.8c0,4.6,2.7,8.8,6.7,11l31.1,17.5c3.9,2.2,8.7,2.2,12.6,0l31.1-17.5c4-2.3,6.6-6.5,6.6-11V30V2.7
		C129,0.1,125.5-1,124.1,1.1z"/>
	<path id="XMLID_339_" class="st2" d="M87.2,71.6c-0.5,1.9,1,3.8,3,3.8h0c1.4,0,2.9-1,3.2-2.3c1-4.4,4.6-7.4,9.6-7.4v-0.1
		c3,0,8.2,3,9.2,7.4c0.3,1.4,1.5,2.3,2.9,2.3c2,0,3.4-1.9,2.9-3.8c-1.7-7.1-8-12-15.4-12C95.1,59.6,88.9,64.6,87.2,71.6z"/>
	<path id="XMLID_338_" class="st2" d="M67.6,59.6c-7.5,0-13.7,5-15.4,12c-0.5,1.9,1,3.8,3,3.8h0c1.4,0,3.4-1,3.7-2.3
		c1-4.4,5.1-7.4,10.1-7.4v-0.1c5,0,7.7,3,8.7,7.4c0.3,1.4,1.2,2.3,2.6,2.3c2,0,3.2-1.9,2.8-3.8C81.5,64.6,75.1,59.6,67.6,59.6z"/>
</g>
</svg>
