<?xml version="1.0" encoding="utf-8"?>
<!-- Generator: Adobe Illustrator 19.0.0, SVG Export Plug-In . SVG Version: 6.00 Build 0)  -->
<svg version="1.1" id="Layer_1" xmlns="http://www.w3.org/2000/svg" xmlns:xlink="http://www.w3.org/1999/xlink" x="0px" y="0px"
	 viewBox="0 0 742.8 1080.4" style="enable-background:new 0 0 742.8 1080.4;" xml:space="preserve">
<style type="text/css">
	.st0{fill:#FFFFFF;}
</style>
<g id="XMLID_242_">
	<g id="XMLID_249_">
		<path id="XMLID_250_" class="st0" d="M114.5,641c-16.5-0.1-29-15.4-25.1-31.5C103.5,550.1,157.2,506,221,506
			c63.9,0,117.5,44.1,131.7,104.1c3.8,16.1-8.7,31.3-25.2,31.3h0c-11.8,0-22.3-7.9-25-19.4c-8.9-36.6-42-64.5-81.3-64.5
			c-39.4,0-72.5,27.2-81.3,63.9C136.8,633,126.4,641,114.5,641L114.5,641z"/>
	</g>
	<g id="XMLID_246_">
		<path id="XMLID_247_" class="st0" d="M415.1,641c-16.5-0.1-29-15.4-25.1-31.5C404.1,550.1,457.8,506,521.6,506
			c63.9,0,117.5,44.1,131.7,104.1c3.8,16.1-8.7,31.3-25.2,31.3h0c-11.8,0-22.3-7.9-25-19.4c-8.9-36.6-42-64.5-81.3-64.5
			c-39.4,0-72.5,27.2-81.3,63.9C437.4,633,427,641,415.1,641L415.1,641z"/>
	</g>
	<path id="XMLID_243_" class="st0" d="M494.8,267.6H248.6c-16.9,0-32.7-8.2-42.3-22L41.2,9.7C28.5-8.4,0,0.5,0,22.7v233v567.7
		c0,38.9,20.9,74.8,54.8,93.9l263.5,149.1c33,18.7,73.3,18.7,106.3,0l263.5-149.1c33.8-19.2,54.8-55,54.8-93.9V255.7V22.9
		c0-22.2-28.5-31.1-41.2-13L537.1,245.5C527.5,259.3,511.6,267.6,494.8,267.6z M691.7,255.7v537.6c0,38.9-20.9,74.8-54.8,93.9
		l-121.9,68.9c-16.2,9.2-34.5,14-53.1,14H281.2c-18.6,0-36.8-4.8-53-13.9L106,887.2c-33.9-19.1-54.9-55-54.9-94V255.7V115l128,182.4
		l0.2,0.2c9.7,13.3,25.2,21.1,41.7,21.1h0.7h300h0.5c16.6,0,32.1-8,41.9-21.4v0l127.5-182.2V255.7z"/>
</g>
</svg>
